<svg width="28" height="36" viewBox="0 0 28 36" fill="none" xmlns="http://www.w3.org/2000/svg">
<path fill-rule="evenodd" clip-rule="evenodd" d="M24.5 24.5625V15.8125C24.5 10.44 21.6475 5.9425 16.625 4.7525V3.5625C16.625 2.11 15.4525 0.9375 14 0.9375C12.5475 0.9375 11.375 2.11 11.375 3.5625V4.7525C6.37 5.9425 3.5 10.4225 3.5 15.8125V24.5625L0 28.0625V29.8125H28V28.0625L24.5 24.5625ZM14 35.0625C15.925 35.0625 17.5 33.4875 17.5 31.5625H10.5C10.5 33.4875 12.075 35.0625 14 35.0625ZM7 26.3125H21V15.8125C21 11.4725 18.3575 7.9375 14 7.9375C9.6425 7.9375 7 11.4725 7 15.8125V26.3125Z" fill="#4183D7"/>
</svg>
