<svg width="40" height="28" viewBox="0 0 40 28" fill="none" xmlns="http://www.w3.org/2000/svg">
<path fill-rule="evenodd" clip-rule="evenodd" d="M0.75 14C3.7775 6.3175 11.25 0.875 20 0.875C28.75 0.875 36.2225 6.3175 39.25 14C36.2225 21.6825 28.75 27.125 20 27.125C11.25 27.125 3.7775 21.6825 0.75 14ZM35.435 14C32.5475 8.1025 26.6325 4.375 20 4.375C13.3675 4.375 7.45254 8.1025 4.56504 14C7.45254 19.8975 13.35 23.625 20 23.625C26.65 23.625 32.5475 19.8975 35.435 14ZM20 9.625C22.415 9.625 24.375 11.585 24.375 14C24.375 16.415 22.415 18.375 20 18.375C17.585 18.375 15.625 16.415 15.625 14C15.625 11.585 17.585 9.625 20 9.625ZM12.125 14C12.125 9.66 15.66 6.125 20 6.125C24.34 6.125 27.875 9.66 27.875 14C27.875 18.34 24.34 21.875 20 21.875C15.66 21.875 12.125 18.34 12.125 14Z" fill="#4183D7"/>
</svg>
