<svg width="169" height="30" viewBox="0 0 169 30" fill="none" xmlns="http://www.w3.org/2000/svg">
<path fill-rule="evenodd" clip-rule="evenodd" d="M146.702 26.9774C146.702 28.5513 145.446 29.8272 143.897 29.8272C142.347 29.8272 141.092 28.5513 141.092 26.9774V13.5583C141.092 11.9841 142.347 10.7083 143.897 10.7083C145.446 10.7083 146.702 11.9841 146.702 13.5583V26.9774ZM147.52 3.85301C147.52 5.88581 145.898 7.53317 143.897 7.53317C141.896 7.53317 140.274 5.88581 140.274 3.85301C140.274 1.82021 141.896 0.172852 143.897 0.172852C145.898 0.172852 147.52 1.82021 147.52 3.85301ZM155.419 13.4209V13.8877C156.096 12.7732 157.053 11.9135 158.291 11.3082C159.528 10.7039 160.952 10.4012 162.563 10.4012C163.754 10.4012 164.717 10.6206 165.452 11.0593C166.187 11.4988 166.753 12.0678 167.15 12.7672C167.548 13.4672 167.81 14.2321 167.939 15.0618C168.066 15.8922 168.131 16.6981 168.131 17.4808V29.7692H162.528V18.939C162.528 17.7066 162.3 16.8107 161.845 16.2536C161.39 15.6961 160.789 15.4172 160.042 15.4172C159.645 15.4172 159.242 15.5005 158.834 15.6661C158.425 15.8324 158.04 16.0638 157.678 16.3602C157.316 16.6568 156.983 17.0065 156.68 17.4092C156.376 17.8134 156.143 18.2514 155.98 18.7261V29.7692H150.377V13.3496V13.2851C150.393 11.914 151.468 10.8049 152.811 10.7569H152.99C154.308 10.804 155.366 11.876 155.419 13.2136V13.4209ZM53.5779 16.3954C53.1807 15.1976 52.6326 14.1603 51.9321 13.2822C51.2319 12.4054 50.3967 11.7114 49.4286 11.2011C48.4593 10.6918 47.3914 10.4365 46.2243 10.4365C44.8236 10.4365 43.6154 10.7386 42.5998 11.3434C41.5841 11.9482 40.7729 12.7846 40.1657 13.8512V3.03968H40.1624C40.1624 3.03152 40.1638 3.02408 40.1638 3.01592C40.1638 1.44584 38.9107 0.172875 37.3654 0.172875C35.8197 0.172875 34.5668 1.44584 34.5668 3.01592C34.5668 3.02408 34.568 3.03152 34.568 3.03968H34.563V29.8042H34.7225V29.8074H40.1326V27.3634C40.6361 27.9906 41.2352 28.5102 41.9345 28.9177C42.9728 29.522 44.1931 29.8246 45.594 29.8246C46.8076 29.8246 47.9402 29.5808 48.9906 29.095C50.0412 28.609 50.9517 27.9334 51.7221 27.0675C52.4923 26.2021 53.0931 25.1818 53.5256 24.0082C53.9573 22.8342 54.1734 21.571 54.1734 20.2194C54.1734 18.8672 53.975 17.593 53.5779 16.3954ZM48.1153 22.1223C47.905 22.7038 47.6076 23.2074 47.2223 23.6346C46.8369 24.0613 46.3696 24.3992 45.8213 24.6486C45.273 24.8974 44.6715 25.022 44.0178 25.022C43.2476 25.022 42.5121 24.7909 41.8121 24.3284C41.1114 23.8657 40.5628 23.2316 40.1657 22.425V18.5118C40.5628 17.5873 41.1289 16.8164 41.8641 16.1994C42.5998 15.5833 43.4106 15.2749 44.2982 15.2749C44.9049 15.2749 45.4591 15.4052 45.9614 15.6658C46.4634 15.927 46.9012 16.2826 47.2747 16.7331C47.6477 17.1838 47.9341 17.7114 48.1325 18.3159C48.331 18.921 48.4304 19.5555 48.4304 20.2194C48.4304 20.9077 48.3253 21.5415 48.1153 22.1223ZM83.3086 13.4561V13.9226C83.9854 12.8083 84.9425 11.9484 86.1804 11.3433C87.4172 10.7388 88.8415 10.4364 90.4523 10.4364C91.643 10.4364 92.606 10.6557 93.3414 11.0945C94.0766 11.5337 94.6424 12.1027 95.0396 12.8021C95.4369 13.5021 95.6992 14.267 95.8279 15.0967C95.9557 15.9271 96.02 16.733 96.02 17.5157V29.8041H90.4171V18.9739C90.4171 17.7417 90.1898 16.8458 89.7346 16.2885C89.2791 15.7313 88.6781 15.4521 87.931 15.4521C87.5339 15.4521 87.1311 15.5354 86.7231 15.7013C86.3139 15.8676 85.9288 16.0987 85.5674 16.3953C85.2049 16.6917 84.8725 17.0414 84.5694 17.4444C84.2654 17.8483 84.0317 18.2865 83.869 18.7613V29.8041H78.2658V13.3848V13.32C78.2828 11.9491 79.3575 10.8398 80.7004 10.7921H80.8787C82.1973 10.8391 83.2556 11.9112 83.3086 13.2485V13.4561ZM29.4857 13.336C28.6451 12.4465 27.6177 11.7409 26.4043 11.2187C25.1897 10.6974 23.8006 10.4363 22.2368 10.4363C20.6726 10.4363 19.2776 10.6974 18.0521 11.2187C16.8265 11.7409 15.7936 12.4525 14.953 13.3537C14.1124 14.2552 13.4701 15.3045 13.0269 16.5021C12.5832 17.6997 12.3616 18.9741 12.3616 20.3262C12.3616 21.4168 12.5288 22.4668 12.8629 23.4765C12.5896 23.8847 12.2229 24.2296 11.7532 24.5058C11.1695 24.8505 10.5276 25.0221 9.82709 25.0221C9.26694 25.0221 8.73562 24.9035 8.23359 24.6664C7.73156 24.4293 7.29378 24.0966 6.92074 23.6704C6.75395 23.4803 6.47234 23.0795 6.47234 21.5901V3.02895C6.47305 1.44567 5.21998 0.172948 3.67443 0.172948C2.13267 0.172948 0.882432 1.44015 0.876526 3.00471L0.869202 23.1275C0.869202 24.8094 1.87232 26.1347 2.59572 26.8895C3.44787 27.7787 4.4869 28.4905 5.71233 29.0243C6.11773 29.2007 6.54227 29.3452 6.98217 29.4635C7.87212 29.7025 8.83106 29.8247 9.86229 29.8247C11.9862 29.8247 13.7897 29.3622 15.2727 28.4368C15.5443 28.2673 15.7981 28.0859 16.0428 27.899C16.6559 28.3533 17.3318 28.7457 18.0871 29.0596C19.3128 29.5691 20.696 29.8247 22.2368 29.8247C24.361 29.8247 26.182 29.3622 27.6999 28.4368C29.2173 27.5123 30.3376 26.3147 31.0615 24.844L26.2992 23.4923C26.1458 23.9027 25.9034 24.2622 25.572 24.5709C25.3475 24.7801 25.0818 24.9659 24.7756 25.1286C24.0165 25.5321 23.2291 25.7332 22.4119 25.7332C21.3842 25.7332 20.4685 25.4077 19.6631 24.7554C18.8577 24.1033 18.4077 23.1484 18.3146 21.8913H31.9021C31.9484 21.6549 31.9836 21.3753 32.0072 21.0556C32.0299 20.7354 32.0419 20.4095 32.0419 20.0773C32.0419 18.7965 31.826 17.5751 31.3941 16.413C30.9623 15.2514 30.326 14.2252 29.4857 13.336ZM18.2095 18.3695C18.3262 17.2079 18.7406 16.2767 19.4529 15.5766C20.1644 14.8773 21.0693 14.5276 22.1667 14.5276C23.2407 14.5276 24.1391 14.8715 24.863 15.5591C25.5866 16.2472 26.0069 17.1839 26.1239 18.3695H18.2095ZM137.412 16.466C136.968 15.2926 136.326 14.2604 135.486 13.3712C134.646 12.482 133.618 11.7702 132.404 11.2366C131.19 10.7036 129.801 10.4365 128.237 10.4365C126.673 10.4365 125.278 10.7036 124.052 11.2366C122.827 11.7702 121.794 12.482 120.953 13.3712C120.113 14.2604 119.476 15.2926 119.045 16.466C118.613 17.6401 118.397 18.8672 118.397 20.1481C118.397 21.429 118.613 22.6561 119.045 23.8302C119.476 25.0045 120.113 26.0358 120.953 26.925C121.794 27.8149 122.827 28.5207 124.052 29.042C125.278 29.5633 126.673 29.8246 128.237 29.8246C129.801 29.8246 131.196 29.5633 132.422 29.042C133.647 28.5207 134.68 27.8149 135.521 26.925C136.362 26.0358 136.997 25.0045 137.429 23.8302C137.861 22.6561 138.077 21.429 138.077 20.1481C138.077 18.8672 137.855 17.6401 137.412 16.466ZM131.984 22.1223C131.774 22.7274 131.488 23.2436 131.126 23.6703C130.764 24.0968 130.338 24.4292 129.848 24.6666C129.358 24.9034 128.82 25.022 128.237 25.022C127.046 25.022 126.066 24.5773 125.295 23.6881C124.525 22.7989 124.14 21.6188 124.14 20.1481C124.14 19.437 124.245 18.7789 124.455 18.1738C124.665 17.5693 124.951 17.0535 125.313 16.6266C125.675 16.1994 126.106 15.8674 126.609 15.6303C127.11 15.3934 127.653 15.2749 128.237 15.2749C129.404 15.2749 130.373 15.7194 131.143 16.6088C131.914 17.498 132.299 18.6778 132.299 20.1481C132.299 20.8599 132.194 21.518 131.984 22.1223ZM72.9783 13.3712C72.1378 12.482 71.1101 11.7702 69.8965 11.2366C68.6824 10.7036 67.293 10.4365 65.7293 10.4365C64.165 10.4365 62.7705 10.7036 61.5443 11.2366C60.3191 11.7702 59.2858 12.482 58.4457 13.3712C57.6049 14.2604 56.9684 15.2926 56.5368 16.466C56.1047 17.6401 55.889 18.8672 55.889 20.1481C55.889 21.429 56.1047 22.6561 56.5368 23.8302C56.9684 25.0045 57.6049 26.0358 58.4457 26.925C59.2858 27.8149 60.3191 28.5207 61.5443 29.042C62.7705 29.5633 64.165 29.8246 65.7293 29.8246C67.293 29.8246 68.6885 29.5633 69.9139 29.042C71.1398 28.5207 72.1725 27.8149 73.0131 26.925C73.8537 26.0358 74.4896 25.0045 74.9217 23.8302C75.3536 22.6561 75.5695 21.429 75.5695 20.1481C75.5695 18.8672 75.3475 17.6401 74.9045 16.466C74.4606 15.2926 73.8189 14.2604 72.9783 13.3712ZM69.4762 22.1223C69.2662 22.7274 68.9798 23.2436 68.6184 23.6703C68.256 24.0968 67.8305 24.4292 67.34 24.6666C66.85 24.9034 66.3126 25.022 65.7293 25.022C64.5386 25.022 63.5581 24.5773 62.7879 23.6881C62.0175 22.7989 61.632 21.6188 61.632 20.1481C61.632 19.437 61.7371 18.7789 61.9474 18.1738C62.1574 17.5693 62.443 17.0535 62.8052 16.6266C63.1669 16.1994 63.5988 15.8674 64.101 15.6303C64.6028 15.3934 65.1455 15.2749 65.7293 15.2749C66.8966 15.2749 67.8654 15.7194 68.6358 16.6088C69.4062 17.498 69.7916 18.6778 69.7916 20.1481C69.7916 20.8599 69.6864 21.518 69.4762 22.1223ZM110.378 24.5059C109.794 24.8506 109.152 25.0219 108.451 25.0219C107.891 25.0219 107.36 24.9034 106.858 24.6665C106.356 24.4294 105.918 24.0967 105.545 23.6702C105.171 23.2435 104.88 22.7275 104.67 22.1222C104.459 21.5182 104.354 20.8481 104.354 20.1127C104.354 18.6425 104.745 17.4686 105.528 16.591C106.309 15.7135 107.284 15.2748 108.451 15.2748C109.852 15.2748 110.914 15.8676 111.638 17.0534L117.101 15.3816C116.377 13.9109 115.292 12.7193 113.845 11.8063C112.397 10.8934 110.61 10.4364 108.487 10.4364C106.922 10.4364 105.528 10.6975 104.302 11.2188C103.076 11.7408 102.043 12.4466 101.203 13.3361C100.362 14.2253 99.7198 15.2566 99.2766 16.4309C98.8327 17.6047 98.6114 18.8318 98.6114 20.1127C98.6114 21.3936 98.8327 22.6207 99.2766 23.7948C99.7198 24.9684 100.368 26.0004 101.22 26.8896C102.072 27.7788 103.111 28.4904 104.337 29.0242C105.562 29.5582 106.946 29.8246 108.487 29.8246C110.61 29.8246 112.414 29.3621 113.897 28.4369C115.379 27.5122 116.459 26.3263 117.136 24.8801L111.673 23.172C111.393 23.7182 110.961 24.1627 110.378 24.5059Z" fill="#F56B2A"/>
</svg>
